<svg xmlns="http://www.w3.org/2000/svg" viewBox="0 0 175.75 51.02"><defs><style>.cls-1{fill:none;}.cls-2{fill:#e62789;}</style></defs><title>자산 2</title><g id="레이어_2" data-name="레이어 2"><g id="레이어_1-2" data-name="레이어 1"><rect class="cls-1" width="175.75" height="51.02"/><path class="cls-2" d="M173.12,27.49a2.16,2.16,0,0,0-2.74,1.38A11,11,0,0,1,167.14,34a46.86,46.86,0,0,0-.38-10.63c-.5-4.33.12-5.81.35-6.18a2.17,2.17,0,0,0,.1-4.31,3.71,3.71,0,0,0-3,1.07,7.3,7.3,0,0,0-1.85,4.65l-6,9a2.16,2.16,0,0,0-3.71,1.75,22.05,22.05,0,0,0,.55,2.91,9.2,9.2,0,0,1-5.84,3c.29-2.06,2.61-7,5.67-12.22.65-1.05,1.32-2.13,2-3.25a2.17,2.17,0,0,0-3.68-2.3c-.78,1.2-1.57,2.47-2.34,3.76-8.4,13.26-11.66,14.77-12.9,14.31-.68-1.77,2.75-9.65,7.31-16.73a2.17,2.17,0,0,0-3.65-2.35c-1.87,2.9-7.23,11.66-7.93,17.46-1.59,1.13-3.85,2.29-5,2-.15,0-.56-.15-.89-1.08s0-3.1,1.09-6.47A28.49,28.49,0,0,0,137.86,18c3.4-5.71,4.52-10.92,2.93-13.61a3.42,3.42,0,0,0-3.09-1.71c-1.13,0-2.22.7-4.41,3.93a99.58,99.58,0,0,0-9.74,19.51,2.4,2.4,0,0,0-.12.38,28.23,28.23,0,0,0-1.58,6.77,1.9,1.9,0,0,0-.65.17,15.88,15.88,0,0,1-3.71,1.19A18.41,18.41,0,0,0,120,30.79a16.27,16.27,0,0,0,1.74-7.95c-.2-2.87-1.47-5.07-3.5-6.05a6.51,6.51,0,0,0-5.52.2,2,2,0,0,0-1.13-1.56,2,2,0,0,0-2.66,1c-2.37,5.06-5.47,11.61-8.23,17.34-.07,0-.15.06-.23.11a12.8,12.8,0,0,1-4,1.72,14.34,14.34,0,0,1,1.22-4.62,15.19,15.19,0,0,0,.59-1.48h0c1.53-3.61,4.51-9.46,4.54-9.52a2.17,2.17,0,0,0-3.87-2c0,.09-.56,1.1-1.25,2.49a7.5,7.5,0,0,0-3.16-3.11c-3.88-1.88-9.19,1.33-12.08,7.3a16.53,16.53,0,0,0-1.74,7,2.65,2.65,0,0,0-.21.26C79.36,33.6,77,36,75.67,36.13c-.14,0-.39,0-.8-.46-.82-1,1.9-5.38,3.2-7.5,2.59-4.21,5.52-9,1.8-11.53-1.81-1.25-4.72-2.05-8.81.25,2.88-6.88,5-12.52,5.23-13a2.17,2.17,0,0,0-4.06-1.55c-.09.22-7.61,19.85-13.51,31.06l-.12,0a15.77,15.77,0,0,1-3.51,1.15,18.27,18.27,0,0,0,2.45-3.79,16.27,16.27,0,0,0,1.74-7.95c-.2-2.87-1.47-5.07-3.5-6.05a6.51,6.51,0,0,0-5.52.2,2,2,0,0,0-1.13-1.56,2,2,0,0,0-2.66,1C44.19,21.24,41.25,27.46,38.58,33c-1.84,1.44-4.9,3.18-6.36,2.78-.15,0-.5-.14-.79-.95s0-3.1,1.09-6.47A28.49,28.49,0,0,0,43.39,18c3.4-5.71,4.52-10.92,2.93-13.61a3.42,3.42,0,0,0-3.09-1.71c-1.13,0-2.22.7-4.41,3.93a99.58,99.58,0,0,0-9.74,19.51,2.4,2.4,0,0,0-.12.38,24,24,0,0,0-1.6,7.88c-1.22.85-1.72.77-1.72.76-.23-.1-.94-1.37-.83-5a1.9,1.9,0,0,0,1.37,0,2,2,0,0,0,1.2-2.57A2.69,2.69,0,0,0,25.21,26c.09-.64.2-1.31.33-2a65.9,65.9,0,0,1,3.63-11.78c1.48-3.83,2.22-5.75,1.17-7.29A2.67,2.67,0,0,0,28.1,3.75c-3.45,0-6.57,2-15,13a113.73,113.73,0,0,0-6.61,9.7,6.13,6.13,0,0,1-1.64-.55,2,2,0,0,0-2.36,3.23A6.81,6.81,0,0,0,4.43,30a70.18,70.18,0,0,0-3.15,6.34A2,2,0,0,0,2.37,39a1.87,1.87,0,0,0,.76.15A2,2,0,0,0,5,37.91a71.58,71.58,0,0,1,3.64-7.15c.48,0,1,0,1.53,0a38.38,38.38,0,0,0,6-.51c2-.31,3.52-.47,4.68-.55-.19,4.59.71,7.53,2.71,8.78,1.07.66,2.81,1.07,5.29-.34a4.81,4.81,0,0,0,2.35,1.46,5.42,5.42,0,0,0,1.5.2,8.83,8.83,0,0,0,2.88-.54c-2,4-3.46,7-3.87,7.57a2,2,0,0,0,.38,2.8,1.94,1.94,0,0,0,1.21.41,2,2,0,0,0,1.59-.79c.76-1,4.06-7.72,7.44-14.75a6.64,6.64,0,0,0,3.17,3.54l.07,0,0,0,.2.08a5.11,5.11,0,0,0,.66.22,18.68,18.68,0,0,0,5.54.81,19.65,19.65,0,0,0,4.13-.44,2.16,2.16,0,0,0,4,1A121.33,121.33,0,0,0,67,26.25c2.27-2.88,7.46-7.81,10.29-6.12,0,1.07-1.81,4-2.91,5.76-2.66,4.32-5.68,9.23-2.81,12.6a5.21,5.21,0,0,0,4,2h.32c2.43-.14,4.65-2,6.18-3.64a5.53,5.53,0,0,0,2.1,1.83h0a5.43,5.43,0,0,0,2.36.5,10.62,10.62,0,0,0,5.76-2A3.81,3.81,0,0,0,93.47,39a3.92,3.92,0,0,0,2.69,1,7,7,0,0,0,1.61-.21c-1.87,3.83-3.28,6.61-3.67,7.16a2,2,0,0,0,.38,2.8,2,2,0,0,0,2.8-.38c.76-1,4.06-7.72,7.44-14.75a6.64,6.64,0,0,0,3.17,3.54,5.38,5.38,0,0,0,1.51.46,18.82,18.82,0,0,0,5.15.7,20.2,20.2,0,0,0,8.21-1.76,5,5,0,0,0,3,2.3,5.8,5.8,0,0,0,1.49.19,11.23,11.23,0,0,0,5.4-1.76,4,4,0,0,0,1.44,1.22,5.25,5.25,0,0,0,2.35.57c2.09,0,4.28-1.26,6.64-3.56a3.79,3.79,0,0,0,.42,1.45,3.44,3.44,0,0,0,3.13,1.77,13,13,0,0,0,8.27-3.08c1.22,2.11,3.06,3.85,5.83,3.85h0c.22,0,.43,0,.67,0,3.82,0,10.44-2.07,13.13-10.24A2.17,2.17,0,0,0,173.12,27.49Zm-42.6-7.7a78.67,78.67,0,0,1,7-12.21c-.06,1.53-.73,4.43-3.07,8.37a23.72,23.72,0,0,1-4.77,5.71C129.93,21.06,130.21,20.43,130.52,19.79Zm-94.47,0A78.67,78.67,0,0,1,43,7.58C43,9.11,42.29,12,40,16a23.72,23.72,0,0,1-4.77,5.71C35.46,21.06,35.74,20.43,36.05,19.79ZM15.51,26.35a36.85,36.85,0,0,1-4.49.44c1.47-2.34,3.23-4.91,5.28-7.61,5.61-7.37,8.37-10,10.07-10.95-.27.77-.62,1.68-.93,2.49a69.13,69.13,0,0,0-3.83,12.49c-.16.88-.29,1.71-.41,2.52A51.8,51.8,0,0,0,15.51,26.35ZM53.4,20.6a1.15,1.15,0,0,1,.49.1h0c.57.27,1,1.19,1,2.43a12,12,0,0,1-1.31,5.77,12,12,0,0,1-3.71,4.6,2.9,2.9,0,0,1-2.51.69l-.07,0A3.2,3.2,0,0,1,46,31.7a9.6,9.6,0,0,1,1-5.46,12,12,0,0,1,4-4.71A4.81,4.81,0,0,1,53.4,20.6ZM86.1,34.74c-1.22-.6-1.73-4.09.26-8.2s5-5.88,6.27-5.29c1.47.71,2.59,3.43,1.61,6.59-.2.47-.39.94-.57,1.4C91.68,33.21,87.4,35.37,86.1,34.74ZM115.83,20.6a1.15,1.15,0,0,1,.49.1h0c.57.27,1,1.19,1.05,2.43a12,12,0,0,1-1.31,5.77,12,12,0,0,1-3.71,4.6,3.8,3.8,0,0,1-2.06.79l-.45-.15-.2-.07a3.34,3.34,0,0,1-1.24-2.37,9.6,9.6,0,0,1,1-5.46,12,12,0,0,1,4-4.71A4.75,4.75,0,0,1,115.83,20.6Zm46.84,5.3c.34,3.42.63,8.33-.63,9.75-.12.13-.4.45-1.34.45-1.14,0-2.07-1.43-2.73-3.13Z"/></g></g></svg>