<svg id="레이어_1" data-name="레이어 1" xmlns="http://www.w3.org/2000/svg" viewBox="0 0 1920 1080"><defs><style>.cls-1{fill:#fff;}</style></defs><title>bounds</title><path class="cls-1" d="M887.91,1052.35c-29.41,0-59.34-.52-88.29-1s-59-1-88.44-1c-16.81,0-34-1-50.56-2s-34-2-51.1-2h-.27c-35.74,0-72,1-107.17,2s-71.3,2-106.92,2l-234,0c-5.17,0-12.23-.71-19.71-1.45-9.11-.9-19.44-1.93-28.79-1.93-8.46,0-15.07.84-20.2,2.56a8.75,8.75,0,0,1-2.71.45,8,8,0,0,1-1.54-.15,32.32,32.32,0,0,0-6-.65c-1.84,0-4.48.21-6.25,2a17.78,17.78,0,0,0-4.47-.51H71a89.5,89.5,0,0,0-11,.9,81.4,81.4,0,0,1-9.75.83c-5.63,0-9.71-1.42-13.22-4.61-5.9-5.34-4.8-13.77-3.64-22.69a68.47,68.47,0,0,0,.87-13.24,8.08,8.08,0,0,0-.7-2.75,14.92,14.92,0,0,0,.67-5.1,14.24,14.24,0,0,1,0-1.67,30,30,0,0,0-.49-6.4c-.5-3.46-1.06-7.37.1-10.75l.06-.2,0-.21c4.71-19.55,3-43.33,1.41-66.33-.77-11-1.51-21.46-1.49-30.93C34,868.24,33,848.8,32,830s-1.94-38-1.92-56.94c.05-37.23,2.13-75.15,4.15-111.82s4.1-74.83,4.15-112.31c.06-39.69-.91-80-1.84-119s-1.89-79.23-1.84-118.81c0-19.91-.71-40.1-1.42-59.63s-1.44-39.56-1.42-59.29c0-9.75.79-19.75,1.53-29.41.76-9.83,1.54-20,1.55-30,0-4.26-.6-9.82-1.24-15.71-1.2-11-2.69-24.59-.17-31.63a7.81,7.81,0,0,1,.47-1c1.79-3.18,2.78-4.92,2.11-7.22a5,5,0,0,0-2.42-3c-4-11.39-3.88-30.72,1.58-34.16,2-1.24,4.38-1.5,7.35-1.5l2.34,0c.83,0,1.66,0,2.48,0a22.64,22.64,0,0,0,9-1.48,21.12,21.12,0,0,1,8.48-1.48,82.59,82.59,0,0,1,10.28.89c3.08.38,6.26.79,9.4.9,1.91.08,4.1.11,6.53.11,14,0,33.73-1.2,45.5-1.91,4.6-.28,8.56-.52,9.54-.52,6.59.34,13.86.51,22.19.51,7.31,0,14.73-.13,21.9-.25s14.46-.24,21.63-.24l132.8.19c33.41,0,67.51,1.11,100.48,2.14,33.87,1.06,68.9,2.15,103.34,2.15h5.06c14.76,0,29.67-1.11,44.09-2.13,11.48-.82,23.37-1.66,35-2h.18l.55,0c3.29.25,6.84.37,11.18.37,2.85,0,5.66,0,8.39-.1,2.54,0,5-.09,7.38-.09q1.47,0,2.88,0c16.36.32,33,.48,51,.48,54.22,0,109.37-1.49,162.7-2.93,43.67-1.18,88.83-2.4,133-2.79h.35c5.8,0,11.72,1.23,17.45,2.42,5.23,1.09,10.18,2.12,14.68,2.12.66,0,1.3,0,1.91-.07,26.62-1.9,55.64-2.83,88.72-2.83,32.88,0,66.4.9,98.82,1.78s65.87,1.77,98.68,1.77h.94c29.37,0,59.28,1.51,88.21,3s59.06,3,88.65,3h.32c15.39,0,30.93-1.55,46-3,14.81-1.47,30.12-3,45.07-3,6,0,13.65.71,21.75,1.46,9.83.91,20,1.85,29.68,1.85,10,0,17.83-1,23.86-3.21a7.44,7.44,0,0,1,1.8-.38c3.77-.32,7.54-.48,11.51-.48,4.15,0,8.06.17,11.84.34,3.43.15,7,.31,10.59.32h0a17.4,17.4,0,0,0,4-.44,22,22,0,0,1,5.19-.59A47.78,47.78,0,0,1,1730.41,36a43.28,43.28,0,0,0,9.4,1.42,15.62,15.62,0,0,0,6-1.09,8.34,8.34,0,0,1,3.13-.54c.25,0,.51,0,.76,0,1.48.09,3,.13,4.55.13,3,0,5.84-.16,8.6-.31s5.38-.31,8.15-.31c1.49,0,2.88,0,4.25.13a27.55,27.55,0,0,0,3,.15,74.47,74.47,0,0,0,8.69-.7,64.65,64.65,0,0,1,7.23-.6,11.8,11.8,0,0,1,3.57.44,18.56,18.56,0,0,0,3.8.88c1.77.2,3.33.42,4.75.62a53.2,53.2,0,0,0,7.31.71,18.76,18.76,0,0,0,8.21-1.81,15.78,15.78,0,0,1,5.19-.91,18.77,18.77,0,0,1,4.13.5,19,19,0,0,0,4,.46c.54,0,1.09,0,1.62-.08,3.6-.36,10.33-.77,17.5-.77,22.89,0,28.8,3.93,30.07,5.14,3.86,3.51,3.32,16.3,3,24.77a109,109,0,0,0-.1,12.3l0,.46a15.41,15.41,0,0,0,.07,6.95l.6,2.64.79.21c1.41,6.2,1.18,29.07-.69,68.09-.26,5.53-.44,9.18-.44,10.51,0,19.18,1.28,38.6,2.51,57.38s2.49,37.91,2.49,56.79c0,37.95-1.78,77.61-3.5,116s-3.51,78.22-3.52,116.37c0,32.89-.81,66.11-1.59,98.23-.87,35.93-1.78,73.09-1.54,109.58.17,25.92,2,52.21,3.78,77.64,1.43,20.47,2.91,41.65,3.5,62.48.57,19.59-.22,39.66-1,59.06-.58,14.94-1.19,30.39-1.19,45.69v32c0,3.55.32,8,.66,12.7.9,12.32,2.13,29.18-2.45,36.09-2.42,3.66-6.32,5.15-13.46,5.15-3,0-6.19-.26-9.57-.53s-7.17-.59-10.77-.59a49.74,49.74,0,0,0-6.11.35,180.91,180.91,0,0,1-21.84,1.12l-35.89,0c-46.68,0-94-.12-139.76-.24-44.26-.11-90-.22-135-.23-18.92,0-38.25-1.52-56.95-3-18.86-1.49-38.37-3-57.64-3h-.19c-38.23,0-77,1.51-114.59,3s-76.18,3-114.23,3h-1.09c-46.67,0-94.1.5-140,1s-93.26,1-139.88,1Z"/><path d="M1010.24,35c5.33,0,11,1.18,16.53,2.33s10.63,2.21,15.6,2.21c.77,0,1.51,0,2.23-.08,26.51-1.9,55.43-2.82,88.4-2.82,32.82,0,66.31.9,98.7,1.78s65.93,1.77,98.8,1.77h.94c29.25,0,59.11,1.51,88,3,29.1,1.47,59.19,3,88.89,3h.31c15.61,0,31.26-1.56,46.4-3.06,14.69-1.46,29.89-3,44.64-3,5.76,0,13.32.7,21.31,1.44,9.47.88,20.2,1.87,30.1,1.87,10.56,0,18.86-1.14,25.38-3.48a3.11,3.11,0,0,1,.67-.12c3.64-.32,7.28-.47,11.11-.47,4.06,0,7.92.17,11.65.33,3.48.16,7.07.32,10.8.33h.09a21.71,21.71,0,0,0,5-.56,17.54,17.54,0,0,1,4.15-.47,43.68,43.68,0,0,1,9.52,1.44,47.46,47.46,0,0,0,10.39,1.53,20.17,20.17,0,0,0,7.67-1.41,3.9,3.9,0,0,1,1.45-.22l.48,0c1.57.09,3.15.14,4.83.14,3.12,0,6-.16,8.85-.32s5.26-.3,7.9-.3c1.36,0,2.63,0,3.88.12a32.1,32.1,0,0,0,3.34.16,76.81,76.81,0,0,0,9.22-.73,62.83,62.83,0,0,1,6.7-.57,7.21,7.21,0,0,1,2.14.21,23.23,23.23,0,0,0,4.72,1.08c1.69.19,3.19.4,4.64.61a56.61,56.61,0,0,0,7.93.75,22.93,22.93,0,0,0,9.87-2.12,11.18,11.18,0,0,1,3.53-.6,14.29,14.29,0,0,1,3.16.39,22.79,22.79,0,0,0,5,.57c.69,0,1.38,0,2.07-.1,3.49-.35,10-.75,17-.75,22.49,0,26.93,3.86,27,3.9l.07.06,0,0c.11.14,1.12,1.58,1.53,6.68a126.58,126.58,0,0,1-.08,14.54,114.67,114.67,0,0,0-.1,12.63,20,20,0,0,0,.21,8.28l.68,2.94.5,6.32.75-.63c.23,4.17.37,11,.15,21.89-.27,13.91-1,29.13-1.48,39.2-.3,6.27-.45,9.34-.45,10.72,0,19.33,1.28,38.82,2.52,57.68,1.22,18.56,2.48,37.76,2.48,56.49,0,37.85-1.78,77.46-3.5,115.76-1.73,38.51-3.51,78.32-3.52,116.57,0,32.84-.81,66-1.59,98.12-.87,36-1.78,73.16-1.54,109.72.17,26.06,2,52.43,3.79,77.92,1.43,20.43,2.9,41.56,3.5,62.3.55,19.44-.23,39.42-1,58.75-.58,15-1.19,30.48-1.19,45.87v32c0,3.71.33,8.24.68,13,.75,10.34,2,27.65-1.72,33.28-1,1.51-2.66,3.13-9.71,3.13-2.81,0-5.92-.25-9.2-.52-3.62-.29-7.36-.6-11.14-.6a52.9,52.9,0,0,0-6.67.39,178.74,178.74,0,0,1-21.29,1.08l-36,0c-46.63,0-93.9-.12-139.62-.24-44.27-.11-90-.22-135-.23-18.74,0-38-1.52-56.59-3-19-1.49-38.55-3-58-3h-.2c-38.31,0-77.17,1.52-114.75,3-37.41,1.46-76.09,3-114,3h-1.1c-46.69,0-94.14.5-140,1s-93.23,1-139.82,1h-.9c-29.38,0-59.29-.52-88.21-1s-59-1-88.52-1c-16.68,0-33.77-1-50.3-2-16.79-1-34.15-2-51.36-2h-.27c-35.81,0-72.15,1-107.3,2s-71.23,2-106.79,2h-234c-4.95,0-11.9-.69-19.27-1.43-9.22-.91-19.66-2-29.23-2-8.95,0-16,.91-21.63,2.79a4.15,4.15,0,0,1-1.28.22,3.82,3.82,0,0,1-.68-.07,37.34,37.34,0,0,0-6.87-.73h0a14.49,14.49,0,0,0-7.3,1.7,25.87,25.87,0,0,0-3.33-.22H71a92.63,92.63,0,0,0-11.53.93,76.56,76.56,0,0,1-9.19.8c-4.55,0-7.51-1-10.2-3.44-4-3.58-3.41-9.47-2.2-18.78a71.73,71.73,0,0,0,.9-14.13,12.53,12.53,0,0,0-.48-2.65,18.78,18.78,0,0,0,.46-5.12,7.6,7.6,0,0,1,0-1.12,34.71,34.71,0,0,0-.52-7.36c-.45-3.1-.91-6.3-.11-8.66l.14-.39.1-.41c4.86-20.24,3.17-44.37,1.52-67.71-.77-10.95-1.5-21.3-1.48-30.6,0-19.29-1-38.79-1.94-57.65-1-18.62-1.93-37.88-1.91-56.7,0-37.12,2.13-75,4.14-111.58,2-36.85,4.11-75,4.16-112.55.06-39.75-.91-80.11-1.84-119.15s-1.89-79.17-1.84-118.7c0-20-.71-40.22-1.42-59.79-.71-19.41-1.44-39.48-1.42-59.13,0-9.58.78-19.49,1.52-29.07.76-9.9,1.55-20.15,1.56-30.39a159.54,159.54,0,0,0-1.27-16.2c-1.08-9.92-2.57-23.49-.42-29.57l.17-.32c2-3.53,3.71-6.58,2.51-10.7a9.36,9.36,0,0,0-2.9-4.48,57.31,57.31,0,0,1-2.14-16.2c.08-7.54,1.73-10.8,2.34-11.41.92-.55,2.35-.78,4.89-.78.75,0,1.5,0,2.24,0s1.73,0,2.58,0a26.7,26.7,0,0,0,10.72-1.84,17,17,0,0,1,6.72-1.12,79.81,79.81,0,0,1,9.72.85c3.17.4,6.45.82,9.79.94,2,.07,4.22.11,6.7.11,14.16,0,33.95-1.2,45.77-1.92,4-.24,8.16-.5,9.19-.51,6.64.34,13.93.51,22.27.51,7.34,0,14.78-.13,22-.25s14.42-.24,21.54-.24h.89l131.91.19C378,39.89,412.08,41,445,42c33.91,1.05,69,2.15,103.48,2.15h5.07c14.91,0,29.9-1.11,44.4-2.14,11.44-.82,23.27-1.66,34.79-2H633c3.4.26,7.06.38,11.51.38,2.89,0,5.72,0,8.47-.1,2.56,0,5-.09,7.3-.09q1.43,0,2.79,0c16.17.31,33.34.48,51.06.48,54.28,0,109.45-1.49,162.81-2.94,43.65-1.18,88.79-2.39,133-2.78h.3m0-9h-.39c-98.17.86-197.08,5.72-295.69,5.72q-25.45,0-50.88-.48-1.46,0-3,0c-4.91,0-10.3.19-15.77.19-3.61,0-7.26-.08-10.83-.35-.3,0-.6,0-.9,0h-.3c-26.27.7-52.6,4-79,4.1h-5c-67.91,0-136-4.2-203.82-4.29l-131.91-.19h-.9c-14.43,0-29,.49-43.52.49-7.35,0-14.69-.13-22-.51h-.21c-3.69,0-35.17,2.43-55,2.43-2.3,0-4.44,0-6.36-.1-6.47-.25-13.33-1.8-19.85-1.8A25.85,25.85,0,0,0,54.66,33a18.17,18.17,0,0,1-7.19,1.12c-1.59,0-3.2-.07-4.82-.07-3.37,0-6.73.31-9.74,2.19-8.73,5.49-7.43,28.57-3.25,40,1.59,3.36,3.75.13.45,6a10.35,10.35,0,0,0-.78,1.65c-4.29,12,1.16,36.68,1.14,48.85,0,19.82-3,39.64-3.08,59.46-.05,39.64,2.9,79.28,2.84,118.92-.1,79.28,3.79,158.57,3.68,237.85-.1,74.71-8.2,149.42-8.3,224.13-.05,38.11,3.9,76.23,3.85,114.35,0,29.26,7,68.08.21,96.21-2.31,6.76.48,13.94.16,18.28a18.44,18.44,0,0,0,0,2.23c.15,3-1.2,4.88-.9,5.48a6.56,6.56,0,0,1,.93,2.44c.86,12.4-6.82,29,4.24,39,5,4.54,10.52,5.77,16.24,5.77,6.79,0,13.86-1.73,20.72-1.73h.39a11.82,11.82,0,0,1,4.18.63,1.61,1.61,0,0,0,.54.09,8.87,8.87,0,0,0,2.75-1c0-.88,1.35-1.23,3.29-1.23a28.87,28.87,0,0,1,5.15.56,12.21,12.21,0,0,0,2.4.24,13,13,0,0,0,4.14-.69c5.13-1.72,11.67-2.32,18.77-2.32,16.77,0,36.68,3.38,48.5,3.38h77.92l155.85,0h.26c71.37,0,142.73-4,214.09-4h.27c33.88,0,67.77,4,101.66,4,58.91,0,117.82,2,176.73,2h.9c93.28,0,186.57-2,279.85-2h1.1c76.26,0,152.52-6,228.79-6h.2c38.19,0,76.39,6,114.59,6,91.28,0,182.75.47,274.6.47l36,0a184.63,184.63,0,0,0,22.4-1.15,43.91,43.91,0,0,1,5.55-.32c6.75,0,13.9,1.12,20.34,1.12,7.13,0,13.38-1.37,17.22-7.16,7.28-11,2.53-38.08,2.53-51.28v-32c0-35.14,3.17-70.07,2.17-104.88-1.34-46.8-7-93.4-7.28-140-.45-68.93,3.13-137.93,3.13-207.77,0-76.12,7-156.23,7-232.34,0-38.06-5-76.11-5-114.17,0-6.33,4.81-80.6-.35-82.44h0a10.67,10.67,0,0,1,.83-7.44,8.17,8.17,0,0,0-.83.67c-.86-10.9,3.3-33.11-4.24-40-5.39-5.12-20.44-6.37-33.17-6.37-7.71,0-14.57.46-17.94.79a11.66,11.66,0,0,1-1.18.06,14.36,14.36,0,0,1-3.06-.35,23.29,23.29,0,0,0-5.11-.61,20.58,20.58,0,0,0-6.9,1.24,14.14,14.14,0,0,1-6.5,1.48c-3.07,0-6.53-.73-11.55-1.3a13.56,13.56,0,0,1-2.88-.68,16,16,0,0,0-5-.67c-4.9,0-10.76,1.3-15.92,1.3a24.28,24.28,0,0,1-2.59-.13c-1.59-.11-3.13-.15-4.63-.15-5.78,0-11,.62-16.75.62-1.39,0-2.81,0-4.27-.12-.35,0-.69,0-1,0a12.73,12.73,0,0,0-4.81.87,11.35,11.35,0,0,1-4.31.76c-5.61,0-12.24-3-19.91-3a26.36,26.36,0,0,0-6.24.72,12.79,12.79,0,0,1-2.89.31h-.07c-7.42,0-14.36-.66-22.47-.66-3.67,0-7.58.13-11.89.5a11.68,11.68,0,0,0-2.93.62c-6.14,2.21-13.93,2.95-22.34,2.95-17.7,0-38.11-3.31-51.41-3.31h0c-30.34,0-60.68,6-91,6h-.31c-59,0-117.91-5.94-176.87-5.94h-.94c-65.55,0-131.69-3.55-197.5-3.55-29.77,0-59.49.73-89,2.84q-.78.06-1.59.06c-8.72,0-20.46-4.54-32.13-4.54ZM78.92,1054.8h0a.68.68,0,0,0,0,.19c.08-.14.07-.2,0-.2Z"/></svg>